<svg width="50" height="23" viewBox="0 0 50 23" fill="none" xmlns="http://www.w3.org/2000/svg">
<g clip-path="url(#clip0_2_11)">
<path d="M-0.0010376 0.76598C6.58896 -1.05502 10.634 0.77597 13.304 6.72997C15.555 11.75 18.809 16.319 21.657 21.149C14.547 23.215 13.048 22.682 9.64899 16.997C6.48599 11.703 3.34496 6.39498 -0.0010376 0.76598Z" fill="black"/>
<path d="M36.223 21.5C29.66 23.262 25.7 21.571 23.063 15.75C20.733 10.607 17.384 5.92604 14.432 0.950041C22.781 -0.802959 23.054 -0.680983 27.032 6.05002C30.011 11.081 33.005 16.098 36.223 21.5Z" fill="black"/>
<path d="M38.896 18.0001C36.627 14.1611 34.61 11.126 32.981 7.90002C30.954 3.87702 32.92 0.655021 37.391 0.267021C38.02 0.213021 38.655 0.247002 39.291 0.247002C42.291 0.247002 45.285 0.247002 49.327 0.247002L38.896 18.0001Z" fill="black"/>
</g>
<defs>
<clipPath id="clip0_2_11">
<rect width="49.324" height="22.254" fill="white"/>
</clipPath>
</defs>
</svg>
