<svg width="74" height="21" viewBox="0 0 74 21" fill="none" xmlns="http://www.w3.org/2000/svg">
<g clip-path="url(#clip0_13_3)">
<path d="M26.43 0.839005V20.309H30.663V11.985C30.663 9.869 31.848 8.23201 33.852 8.23201C35.376 8.23201 36.109 9.132 36.109 10.715V20.309H40.342V10.409C40.342 6.79701 38.056 5.019 35.009 5.019C34.1761 4.99247 33.3486 5.16242 32.5936 5.51509C31.8386 5.86775 31.1772 6.39324 30.663 7.049V0.839005H26.43ZM49.399 20.649C53.745 20.649 56.228 18.588 56.228 14.749V5.349H51.995V14.887C52.0229 15.2355 51.9748 15.586 51.854 15.9141C51.7332 16.2422 51.5426 16.5401 51.2954 16.7874C51.0481 17.0346 50.7502 17.2252 50.4221 17.346C50.094 17.4668 49.7435 17.5149 49.395 17.487C49.0482 17.5137 48.6998 17.4644 48.3739 17.3427C48.0481 17.2211 47.7527 17.0298 47.5082 16.7823C47.2638 16.5349 47.0763 16.2371 46.9586 15.9098C46.841 15.5825 46.7961 15.2334 46.827 14.887V5.349H42.599V14.749C42.599 18.588 45.082 20.649 49.399 20.649ZM58.627 0.839005V20.309H62.521V18.165C63.0175 18.9776 63.7271 19.6388 64.5727 20.0767C65.4184 20.5146 66.3678 20.7125 67.318 20.649C70.761 20.649 73.582 18.449 73.582 12.833C73.582 7.217 70.76 5.017 67.318 5.017C66.4697 4.97364 65.6231 5.13234 64.8481 5.48005C64.0731 5.82775 63.3917 6.35452 62.86 7.017V0.837006L58.627 0.839005ZM66.048 17.488C64.214 17.488 62.775 16.359 62.775 12.832C62.775 9.305 64.214 8.176 66.048 8.176C68.136 8.176 69.268 9.44901 69.268 12.832C69.268 16.249 68.108 17.488 66.048 17.488Z" fill="black"/>
<path opacity="0.811" d="M6.5 13C10.0899 13 13 10.0899 13 6.5C13 2.91015 10.0899 0 6.5 0C2.91015 0 0 2.91015 0 6.5C0 10.0899 2.91015 13 6.5 13Z" fill="#FAD55B"/>
<path opacity="0.316" d="M13.5 13C17.0899 13 20 10.0899 20 6.5C20 2.91015 17.0899 0 13.5 0C9.91015 0 7 2.91015 7 6.5C7 10.0899 9.91015 13 13.5 13Z" fill="#FAD55B"/>
</g>
<defs>
<clipPath id="clip0_13_3">
<rect width="73.582" height="20.648" fill="white"/>
</clipPath>
</defs>
</svg>
