<svg width="60" height="20" viewBox="0 0 60 20" fill="none" xmlns="http://www.w3.org/2000/svg">
<path d="M0.815518 0.909091H2.14293L3.54492 4.32955H3.60458L5.00657 0.909091H6.33398V6H5.28995V2.68643H5.24769L3.93022 5.97514H3.21928L1.90181 2.67401H1.85955V6H0.815518V0.909091ZM8.28968 6.07209C8.04608 6.07209 7.82898 6.02983 7.63841 5.94531C7.44783 5.85914 7.29702 5.73236 7.18599 5.56499C7.07662 5.39595 7.02193 5.18549 7.02193 4.93359C7.02193 4.72147 7.06087 4.54332 7.13876 4.39915C7.21665 4.25497 7.32271 4.13897 7.45694 4.05114C7.59118 3.9633 7.74364 3.89702 7.91433 3.85227C8.08668 3.80753 8.26731 3.77604 8.45623 3.75781C8.6783 3.73461 8.85727 3.71307 8.99316 3.69318C9.12905 3.67164 9.22766 3.64015 9.28897 3.59872C9.35029 3.55729 9.38095 3.49598 9.38095 3.41477V3.39986C9.38095 3.24242 9.33123 3.12062 9.2318 3.03445C9.13403 2.94827 8.99482 2.90518 8.81419 2.90518C8.62361 2.90518 8.47198 2.94744 8.35929 3.03196C8.2466 3.11482 8.17202 3.21922 8.13556 3.34517L7.15616 3.26562C7.20588 3.03362 7.30365 2.8331 7.44949 2.66406C7.59532 2.49337 7.78341 2.36245 8.01376 2.27131C8.24577 2.1785 8.51423 2.1321 8.81916 2.1321C9.03128 2.1321 9.23429 2.15696 9.42818 2.20668C9.62373 2.25639 9.7969 2.33345 9.94771 2.43785C10.1002 2.54226 10.2203 2.67649 10.3081 2.84055C10.396 3.00296 10.4399 3.19768 10.4399 3.42472V6H9.43564V5.47053H9.40581C9.34449 5.58984 9.26246 5.69508 9.15971 5.78622C9.05697 5.87571 8.9335 5.94614 8.78933 5.99751C8.64515 6.04723 8.4786 6.07209 8.28968 6.07209ZM8.59295 5.34126C8.74873 5.34126 8.88627 5.31061 9.00559 5.24929C9.12491 5.18632 9.21854 5.1018 9.28649 4.99574C9.35443 4.88968 9.38841 4.76953 9.38841 4.6353V4.23011C9.35526 4.25166 9.30969 4.27154 9.25169 4.28977C9.19534 4.30634 9.13154 4.32209 9.06028 4.337C8.98902 4.35026 8.91776 4.36269 8.8465 4.37429C8.77524 4.38423 8.71061 4.39335 8.65261 4.40163C8.52832 4.41986 8.41977 4.44886 8.32697 4.48864C8.23417 4.52841 8.16208 4.58227 8.11071 4.65021C8.05933 4.7165 8.03365 4.79936 8.03365 4.89879C8.03365 5.04297 8.08585 5.15317 8.19025 5.2294C8.29631 5.30398 8.43055 5.34126 8.59295 5.34126ZM12.221 4.90128L12.2235 3.63104H12.3776L13.6006 2.18182H14.8161L13.173 4.10085H12.922L12.221 4.90128ZM11.2615 6V0.909091H12.3204V6H11.2615ZM13.6478 6L12.5242 4.337L13.2302 3.58878L14.8882 6H13.6478ZM16.9185 6.07457C16.5257 6.07457 16.1877 5.99503 15.9043 5.83594C15.6226 5.67519 15.4055 5.44815 15.253 5.15483C15.1006 4.85985 15.0243 4.51101 15.0243 4.10831C15.0243 3.71555 15.1006 3.37086 15.253 3.07422C15.4055 2.77758 15.6201 2.5464 15.8968 2.38068C16.1752 2.21496 16.5017 2.1321 16.8762 2.1321C17.1281 2.1321 17.3626 2.1727 17.5797 2.25391C17.7985 2.33345 17.9891 2.4536 18.1515 2.61435C18.3155 2.77509 18.4431 2.97727 18.5343 3.22088C18.6254 3.46283 18.671 3.74621 18.671 4.07102V4.36186H15.4469V3.70561H17.6742C17.6742 3.55315 17.641 3.41809 17.5748 3.30043C17.5085 3.18277 17.4165 3.09079 17.2988 3.0245C17.1828 2.95656 17.0478 2.92259 16.8936 2.92259C16.7329 2.92259 16.5904 2.95987 16.4661 3.03445C16.3435 3.10736 16.2473 3.20597 16.1777 3.33026C16.1081 3.45289 16.0725 3.58961 16.0708 3.74041V4.36435C16.0708 4.55327 16.1056 4.7165 16.1752 4.85405C16.2465 4.9916 16.3468 5.09766 16.476 5.17223C16.6053 5.2468 16.7586 5.28409 16.9359 5.28409C17.0536 5.28409 17.1613 5.26752 17.2591 5.23438C17.3568 5.20123 17.4405 5.15152 17.5101 5.08523C17.5797 5.01894 17.6328 4.93774 17.6692 4.84162L18.6486 4.90625C18.5989 5.14157 18.497 5.34706 18.3429 5.52273C18.1904 5.69673 17.9932 5.83262 17.7512 5.9304C17.5109 6.02652 17.2334 6.07457 16.9185 6.07457ZM22.0709 6.07209C21.8273 6.07209 21.6102 6.02983 21.4197 5.94531C21.2291 5.85914 21.0783 5.73236 20.9672 5.56499C20.8579 5.39595 20.8032 5.18549 20.8032 4.93359C20.8032 4.72147 20.8421 4.54332 20.92 4.39915C20.9979 4.25497 21.104 4.13897 21.2382 4.05114C21.3724 3.9633 21.5249 3.89702 21.6956 3.85227C21.8679 3.80753 22.0486 3.77604 22.2375 3.75781C22.4595 3.73461 22.6385 3.71307 22.7744 3.69318C22.9103 3.67164 23.0089 3.64015 23.0702 3.59872C23.1315 3.55729 23.1622 3.49598 23.1622 3.41477V3.39986C23.1622 3.24242 23.1125 3.12062 23.0131 3.03445C22.9153 2.94827 22.7761 2.90518 22.5954 2.90518C22.4049 2.90518 22.2532 2.94744 22.1405 3.03196C22.0278 3.11482 21.9533 3.21922 21.9168 3.34517L20.9374 3.26562C20.9871 3.03362 21.0849 2.8331 21.2307 2.66406C21.3766 2.49337 21.5647 2.36245 21.795 2.27131C22.027 2.1785 22.2955 2.1321 22.6004 2.1321C22.8125 2.1321 23.0155 2.15696 23.2094 2.20668C23.405 2.25639 23.5782 2.33345 23.729 2.43785C23.8814 2.54226 24.0016 2.67649 24.0894 2.84055C24.1772 3.00296 24.2211 3.19768 24.2211 3.42472V6H23.2169V5.47053H23.1871C23.1257 5.58984 23.0437 5.69508 22.941 5.78622C22.8382 5.87571 22.7148 5.94614 22.5706 5.99751C22.4264 6.04723 22.2599 6.07209 22.0709 6.07209ZM22.3742 5.34126C22.53 5.34126 22.6675 5.31061 22.7868 5.24929C22.9062 5.18632 22.9998 5.1018 23.0677 4.99574C23.1357 4.88968 23.1697 4.76953 23.1697 4.6353V4.23011C23.1365 4.25166 23.0909 4.27154 23.0329 4.28977C22.9766 4.30634 22.9128 4.32209 22.8415 4.337C22.7703 4.35026 22.699 4.36269 22.6278 4.37429C22.5565 4.38423 22.4919 4.39335 22.4339 4.40163C22.3096 4.41986 22.201 4.44886 22.1082 4.48864C22.0154 4.52841 21.9433 4.58227 21.892 4.65021C21.8406 4.7165 21.8149 4.79936 21.8149 4.89879C21.8149 5.04297 21.8671 5.15317 21.9715 5.2294C22.0776 5.30398 22.2118 5.34126 22.3742 5.34126ZM28.388 6.07457C27.9969 6.07457 27.6605 5.99171 27.3787 5.82599C27.0987 5.65862 26.8832 5.42661 26.7324 5.12997C26.5833 4.83333 26.5087 4.49195 26.5087 4.10582C26.5087 3.71473 26.5841 3.37169 26.7349 3.0767C26.8874 2.78007 27.1036 2.54889 27.3837 2.38317C27.6638 2.21579 27.9969 2.1321 28.383 2.1321C28.7161 2.1321 29.0078 2.19259 29.258 2.31357C29.5082 2.43454 29.7063 2.6044 29.8521 2.82315C29.9979 3.0419 30.0783 3.29877 30.0932 3.59375H29.0939C29.0658 3.40317 28.9912 3.24988 28.8702 3.13388C28.7509 3.01622 28.5943 2.95739 28.4004 2.95739C28.2363 2.95739 28.093 3.00213 27.9703 3.09162C27.8494 3.17945 27.7549 3.30788 27.687 3.47692C27.619 3.64595 27.585 3.85062 27.585 4.09091C27.585 4.33452 27.6182 4.54167 27.6845 4.71236C27.7524 4.88305 27.8477 5.01314 27.9703 5.10263C28.093 5.19212 28.2363 5.23686 28.4004 5.23686C28.5214 5.23686 28.6299 5.212 28.726 5.16229C28.8238 5.11257 28.9042 5.04048 28.9672 4.94602C29.0318 4.84991 29.074 4.73473 29.0939 4.6005H30.0932C30.0766 4.89216 29.9971 5.14903 29.8546 5.37109C29.7137 5.5915 29.519 5.76385 29.2704 5.88814C29.0218 6.01243 28.7277 6.07457 28.388 6.07457ZM31.8302 3.79261V6H30.7712V0.909091H31.8003V2.85547H31.8451C31.9313 2.63009 32.0705 2.4536 32.2627 2.32599C32.4549 2.19673 32.6961 2.1321 32.9861 2.1321C33.2512 2.1321 33.4824 2.1901 33.6796 2.30611C33.8785 2.42045 34.0326 2.58535 34.142 2.80078C34.253 3.01456 34.3077 3.2706 34.306 3.56889V6H33.2471V3.75781C33.2487 3.52249 33.1891 3.33937 33.0681 3.20845C32.9488 3.07753 32.7814 3.01207 32.566 3.01207C32.4218 3.01207 32.2942 3.04273 32.1831 3.10405C32.0738 3.16536 31.9876 3.25485 31.9246 3.37251C31.8633 3.48852 31.8318 3.62855 31.8302 3.79261ZM36.2282 6.07209C35.9846 6.07209 35.7675 6.02983 35.5769 5.94531C35.3863 5.85914 35.2355 5.73236 35.1245 5.56499C35.0151 5.39595 34.9604 5.18549 34.9604 4.93359C34.9604 4.72147 34.9993 4.54332 35.0772 4.39915C35.1551 4.25497 35.2612 4.13897 35.3954 4.05114C35.5297 3.9633 35.6821 3.89702 35.8528 3.85227C36.0252 3.80753 36.2058 3.77604 36.3947 3.75781C36.6168 3.73461 36.7958 3.71307 36.9316 3.69318C37.0675 3.67164 37.1661 3.64015 37.2275 3.59872C37.2888 3.55729 37.3194 3.49598 37.3194 3.41477V3.39986C37.3194 3.24242 37.2697 3.12062 37.1703 3.03445C37.0725 2.94827 36.9333 2.90518 36.7527 2.90518C36.5621 2.90518 36.4105 2.94744 36.2978 3.03196C36.1851 3.11482 36.1105 3.21922 36.074 3.34517L35.0946 3.26562C35.1444 3.03362 35.2421 2.8331 35.388 2.66406C35.5338 2.49337 35.7219 2.36245 35.9522 2.27131C36.1842 2.1785 36.4527 2.1321 36.7576 2.1321C36.9698 2.1321 37.1728 2.15696 37.3667 2.20668C37.5622 2.25639 37.7354 2.33345 37.8862 2.43785C38.0386 2.54226 38.1588 2.67649 38.2466 2.84055C38.3345 3.00296 38.3784 3.19768 38.3784 3.42472V6H37.3741V5.47053H37.3443C37.283 5.58984 37.2009 5.69508 37.0982 5.78622C36.9954 5.87571 36.872 5.94614 36.7278 5.99751C36.5836 6.04723 36.4171 6.07209 36.2282 6.07209ZM36.5314 5.34126C36.6872 5.34126 36.8248 5.31061 36.9441 5.24929C37.0634 5.18632 37.157 5.1018 37.225 4.99574C37.2929 4.88968 37.3269 4.76953 37.3269 4.6353V4.23011C37.2937 4.25166 37.2482 4.27154 37.1902 4.28977C37.1338 4.30634 37.07 4.32209 36.9988 4.337C36.9275 4.35026 36.8562 4.36269 36.785 4.37429C36.7137 4.38423 36.6491 4.39335 36.5911 4.40163C36.4668 4.41986 36.3583 4.44886 36.2654 4.48864C36.1726 4.52841 36.1006 4.58227 36.0492 4.65021C35.9978 4.7165 35.9721 4.79936 35.9721 4.89879C35.9721 5.04297 36.0243 5.15317 36.1287 5.2294C36.2348 5.30398 36.369 5.34126 36.5314 5.34126ZM40.2589 3.79261V6H39.1999V2.18182H40.2092V2.85547H40.2539C40.3384 2.6334 40.4801 2.45774 40.679 2.32848C40.8778 2.19756 41.119 2.1321 41.4023 2.1321C41.6675 2.1321 41.8987 2.1901 42.0959 2.30611C42.2931 2.42211 42.4464 2.58783 42.5558 2.80327C42.6651 3.01705 42.7198 3.27225 42.7198 3.56889V6H41.6609V3.75781C41.6625 3.52415 41.6029 3.34186 41.4819 3.21094C41.3609 3.07836 41.1944 3.01207 40.9822 3.01207C40.8397 3.01207 40.7138 3.04273 40.6044 3.10405C40.4967 3.16536 40.4122 3.25485 40.3509 3.37251C40.2912 3.48852 40.2605 3.62855 40.2589 3.79261ZM45.2746 7.51136C44.9316 7.51136 44.6374 7.46413 44.3921 7.36967C44.1485 7.27687 43.9546 7.15009 43.8105 6.98935C43.6663 6.8286 43.5727 6.64796 43.5296 6.44744L44.509 6.3157C44.5388 6.39193 44.586 6.46319 44.6507 6.52947C44.7153 6.59576 44.8006 6.64879 44.9067 6.68857C45.0144 6.73 45.1453 6.75071 45.2994 6.75071C45.5298 6.75071 45.7195 6.69437 45.8687 6.58168C46.0195 6.47064 46.0949 6.28421 46.0949 6.02237V5.32386H46.0502C46.0038 5.42992 45.9342 5.53018 45.8414 5.62464C45.7485 5.71911 45.6292 5.79616 45.4834 5.85582C45.3376 5.91548 45.1636 5.94531 44.9614 5.94531C44.6747 5.94531 44.4137 5.87902 44.1784 5.74645C43.9447 5.61222 43.7583 5.40755 43.6191 5.13246C43.4815 4.85571 43.4127 4.50604 43.4127 4.08345C43.4127 3.65092 43.4832 3.28965 43.624 2.99964C43.7649 2.70964 43.9521 2.49254 44.1858 2.34837C44.4211 2.20419 44.6788 2.1321 44.9589 2.1321C45.1727 2.1321 45.3517 2.16856 45.4958 2.24148C45.64 2.31274 45.756 2.40223 45.8438 2.50994C45.9333 2.616 46.0021 2.72041 46.0502 2.82315H46.0899V2.18182H47.1414V6.03729C47.1414 6.3621 47.0619 6.63388 46.9028 6.85263C46.7437 7.07138 46.5233 7.23544 46.2416 7.34482C45.9615 7.45585 45.6392 7.51136 45.2746 7.51136ZM45.297 5.14986C45.4677 5.14986 45.6118 5.1076 45.7295 5.02308C45.8488 4.93691 45.94 4.81428 46.0029 4.65518C46.0676 4.49444 46.0999 4.3022 46.0999 4.07848C46.0999 3.85476 46.0684 3.66087 46.0054 3.4968C45.9424 3.33108 45.8513 3.20265 45.732 3.11151C45.6127 3.02036 45.4677 2.97479 45.297 2.97479C45.123 2.97479 44.9763 3.02202 44.857 3.11648C44.7377 3.20928 44.6473 3.33854 44.586 3.50426C44.5247 3.66998 44.4941 3.86139 44.4941 4.07848C44.4941 4.29889 44.5247 4.48946 44.586 4.65021C44.649 4.8093 44.7393 4.93277 44.857 5.0206C44.9763 5.10677 45.123 5.14986 45.297 5.14986ZM49.7242 6.07457C49.3314 6.07457 48.9933 5.99503 48.71 5.83594C48.4282 5.67519 48.2111 5.44815 48.0587 5.15483C47.9062 4.85985 47.83 4.51101 47.83 4.10831C47.83 3.71555 47.9062 3.37086 48.0587 3.07422C48.2111 2.77758 48.4258 2.5464 48.7025 2.38068C48.9809 2.21496 49.3074 2.1321 49.6819 2.1321C49.9338 2.1321 50.1683 2.1727 50.3854 2.25391C50.6041 2.33345 50.7947 2.4536 50.9571 2.61435C51.1212 2.77509 51.2488 2.97727 51.3399 3.22088C51.4311 3.46283 51.4767 3.74621 51.4767 4.07102V4.36186H48.2526V3.70561H50.4798C50.4798 3.55315 50.4467 3.41809 50.3804 3.30043C50.3141 3.18277 50.2222 3.09079 50.1045 3.0245C49.9885 2.95656 49.8534 2.92259 49.6993 2.92259C49.5386 2.92259 49.396 2.95987 49.2718 3.03445C49.1491 3.10736 49.053 3.20597 48.9834 3.33026C48.9138 3.45289 48.8782 3.58961 48.8765 3.74041V4.36435C48.8765 4.55327 48.9113 4.7165 48.9809 4.85405C49.0522 4.9916 49.1524 5.09766 49.2817 5.17223C49.411 5.2468 49.5642 5.28409 49.7416 5.28409C49.8592 5.28409 49.9669 5.26752 50.0647 5.23438C50.1625 5.20123 50.2462 5.15152 50.3158 5.08523C50.3854 5.01894 50.4384 4.93774 50.4749 4.84162L51.4543 4.90625C51.4046 5.14157 51.3026 5.34706 51.1485 5.52273C50.9961 5.69673 50.7989 5.83262 50.5569 5.9304C50.3166 6.02652 50.039 6.07457 49.7242 6.07457ZM53.7878 6V2.18182H54.8468V6H53.7878ZM54.3198 1.68963C54.1623 1.68963 54.0273 1.63743 53.9146 1.53303C53.8036 1.42696 53.748 1.30019 53.748 1.1527C53.748 1.00687 53.8036 0.881747 53.9146 0.777344C54.0273 0.671283 54.1623 0.618253 54.3198 0.618253C54.4772 0.618253 54.6114 0.671283 54.7225 0.777344C54.8352 0.881747 54.8915 1.00687 54.8915 1.1527C54.8915 1.30019 54.8352 1.42696 54.7225 1.53303C54.6114 1.63743 54.4772 1.68963 54.3198 1.68963ZM56.754 3.79261V6H55.695V2.18182H56.7043V2.85547H56.749C56.8335 2.6334 56.9752 2.45774 57.1741 2.32848C57.373 2.19756 57.6141 2.1321 57.8975 2.1321C58.1626 2.1321 58.3938 2.1901 58.591 2.30611C58.7882 2.42211 58.9415 2.58783 59.0509 2.80327C59.1602 3.01705 59.2149 3.27225 59.2149 3.56889V6H58.156V3.75781C58.1576 3.52415 58.098 3.34186 57.977 3.21094C57.856 3.07836 57.6895 3.01207 57.4774 3.01207C57.3348 3.01207 57.2089 3.04273 57.0995 3.10405C56.9918 3.16536 56.9073 3.25485 56.846 3.37251C56.7863 3.48852 56.7557 3.62855 56.754 3.79261ZM5.78338 19.4318C5.64915 19.4318 5.5232 19.421 5.40554 19.3995C5.28954 19.3796 5.19342 19.3539 5.11719 19.3224L5.35582 18.532C5.48011 18.5701 5.59197 18.5908 5.69141 18.5941C5.7925 18.5974 5.8795 18.5742 5.95241 18.5245C6.02699 18.4748 6.08748 18.3903 6.13388 18.271L6.19602 18.1094L4.82635 14.1818H5.93999L6.73047 16.9858H6.77024L7.56818 14.1818H8.68928L7.20526 18.4126C7.134 18.6181 7.03705 18.7971 6.91442 18.9496C6.79344 19.1037 6.64015 19.2222 6.45455 19.305C6.26894 19.3896 6.04522 19.4318 5.78338 19.4318ZM10.8333 18.0746C10.4471 18.0746 10.1132 17.9925 9.8315 17.8285C9.55143 17.6628 9.33517 17.4324 9.18271 17.1374C9.03024 16.8408 8.95401 16.4969 8.95401 16.1058C8.95401 15.7114 9.03024 15.3667 9.18271 15.0717C9.33517 14.7751 9.55143 14.5447 9.8315 14.3807C10.1132 14.215 10.4471 14.1321 10.8333 14.1321C11.2194 14.1321 11.5525 14.215 11.8326 14.3807C12.1143 14.5447 12.3314 14.7751 12.4838 15.0717C12.6363 15.3667 12.7125 15.7114 12.7125 16.1058C12.7125 16.4969 12.6363 16.8408 12.4838 17.1374C12.3314 17.4324 12.1143 17.6628 11.8326 17.8285C11.5525 17.9925 11.2194 18.0746 10.8333 18.0746ZM10.8382 17.2543C11.0139 17.2543 11.1606 17.2045 11.2782 17.1051C11.3959 17.004 11.4846 16.8665 11.5442 16.6925C11.6055 16.5185 11.6362 16.3204 11.6362 16.0984C11.6362 15.8763 11.6055 15.6783 11.5442 15.5043C11.4846 15.3303 11.3959 15.1927 11.2782 15.0916C11.1606 14.9905 11.0139 14.94 10.8382 14.94C10.6609 14.94 10.5118 14.9905 10.3908 15.0916C10.2715 15.1927 10.1812 15.3303 10.1199 15.5043C10.0602 15.6783 10.0304 15.8763 10.0304 16.0984C10.0304 16.3204 10.0602 16.5185 10.1199 16.6925C10.1812 16.8665 10.2715 17.004 10.3908 17.1051C10.5118 17.2045 10.6609 17.2543 10.8382 17.2543ZM15.8496 16.3743V14.1818H16.9086V18H15.8919V17.3065H15.8521C15.7659 17.5302 15.6226 17.71 15.4221 17.8459C15.2232 17.9818 14.9804 18.0497 14.6937 18.0497C14.4385 18.0497 14.214 17.9917 14.0201 17.8757C13.8262 17.7597 13.6745 17.5948 13.5652 17.381C13.4574 17.1673 13.4028 16.9112 13.4011 16.6129V14.1818H14.46V16.424C14.4617 16.6494 14.5222 16.8275 14.6415 16.9585C14.7608 17.0894 14.9208 17.1548 15.1213 17.1548C15.2489 17.1548 15.3682 17.1258 15.4792 17.0678C15.5903 17.0082 15.6797 16.9203 15.7477 16.8043C15.8173 16.6883 15.8513 16.545 15.8496 16.3743ZM17.7556 18V14.1818H18.7822V14.848H18.822C18.8916 14.611 19.0084 14.4321 19.1725 14.3111C19.3366 14.1884 19.5255 14.1271 19.7393 14.1271C19.7923 14.1271 19.8495 14.1304 19.9108 14.1371C19.9721 14.1437 20.026 14.1528 20.0724 14.1644V15.104C20.0226 15.0891 19.9539 15.0759 19.866 15.0643C19.7782 15.0527 19.6978 15.0469 19.6249 15.0469C19.4691 15.0469 19.3299 15.0808 19.2073 15.1488C19.0863 15.2151 18.9902 15.3079 18.9189 15.4272C18.8493 15.5465 18.8145 15.6841 18.8145 15.8398V18H17.7556Z" fill="black"/>
<path d="M23.2989 12.9091V18H22.24V12.9091H23.2989ZM24.1472 18V14.1818H25.2061V18H24.1472ZM24.6792 13.6896C24.5217 13.6896 24.3867 13.6374 24.274 13.533C24.1629 13.427 24.1074 13.3002 24.1074 13.1527C24.1074 13.0069 24.1629 12.8817 24.274 12.7773C24.3867 12.6713 24.5217 12.6183 24.6792 12.6183C24.8366 12.6183 24.9708 12.6713 25.0819 12.7773C25.1945 12.8817 25.2509 13.0069 25.2509 13.1527C25.2509 13.3002 25.1945 13.427 25.0819 13.533C24.9708 13.6374 24.8366 13.6896 24.6792 13.6896ZM28.1077 14.1818V14.9773H25.7512V14.1818H28.1077ZM26.2906 18V13.9059C26.2906 13.6291 26.3444 13.3996 26.4521 13.2173C26.5615 13.035 26.7107 12.8983 26.8996 12.8072C27.0885 12.716 27.3031 12.6705 27.5434 12.6705C27.7058 12.6705 27.8541 12.6829 27.9884 12.7077C28.1243 12.7326 28.2253 12.755 28.2916 12.7749L28.1027 13.5703C28.0613 13.5571 28.0099 13.5446 27.9486 13.533C27.8889 13.5214 27.8276 13.5156 27.7646 13.5156C27.6089 13.5156 27.5003 13.5521 27.439 13.625C27.3777 13.6963 27.347 13.7965 27.347 13.9258V18H26.2906ZM30.358 18.0746C29.9652 18.0746 29.6271 17.995 29.3438 17.8359C29.062 17.6752 28.8449 17.4482 28.6925 17.1548C28.54 16.8598 28.4638 16.511 28.4638 16.1083C28.4638 15.7156 28.54 15.3709 28.6925 15.0742C28.8449 14.7776 29.0595 14.5464 29.3363 14.3807C29.6147 14.215 29.9412 14.1321 30.3157 14.1321C30.5676 14.1321 30.8021 14.1727 31.0192 14.2539C31.2379 14.3335 31.4285 14.4536 31.5909 14.6143C31.755 14.7751 31.8826 14.9773 31.9737 15.2209C32.0649 15.4628 32.1104 15.7462 32.1104 16.071V16.3619H28.8864V15.7056H31.1136C31.1136 15.5531 31.0805 15.4181 31.0142 15.3004C30.9479 15.1828 30.8559 15.0908 30.7383 15.0245C30.6223 14.9566 30.4872 14.9226 30.3331 14.9226C30.1723 14.9226 30.0298 14.9599 29.9055 15.0344C29.7829 15.1074 29.6868 15.206 29.6172 15.3303C29.5476 15.4529 29.512 15.5896 29.5103 15.7404V16.3643C29.5103 16.5533 29.5451 16.7165 29.6147 16.854C29.686 16.9916 29.7862 17.0977 29.9155 17.1722C30.0447 17.2468 30.198 17.2841 30.3754 17.2841C30.493 17.2841 30.6007 17.2675 30.6985 17.2344C30.7963 17.2012 30.88 17.1515 30.9496 17.0852C31.0192 17.0189 31.0722 16.9377 31.1087 16.8416L32.0881 16.9062C32.0384 17.1416 31.9364 17.3471 31.7823 17.5227C31.6299 17.6967 31.4326 17.8326 31.1907 17.9304C30.9504 18.0265 30.6728 18.0746 30.358 18.0746ZM36.4525 14.1818V14.9773H34.1531V14.1818H36.4525ZM34.6752 13.267H35.7341V16.8267C35.7341 16.9245 35.749 17.0007 35.7789 17.0554C35.8087 17.1084 35.8501 17.1457 35.9031 17.1673C35.9578 17.1888 36.0208 17.1996 36.0921 17.1996C36.1418 17.1996 36.1915 17.1954 36.2412 17.1871C36.2909 17.1772 36.329 17.1697 36.3556 17.1648L36.5221 17.9528C36.4691 17.9693 36.3945 17.9884 36.2984 18.0099C36.2023 18.0331 36.0854 18.0472 35.9479 18.0522C35.6927 18.0621 35.469 18.0282 35.2767 17.9503C35.0861 17.8724 34.9378 17.7514 34.8318 17.5874C34.7257 17.4233 34.6735 17.2161 34.6752 16.9659V13.267ZM38.8264 18.0746C38.4403 18.0746 38.1064 17.9925 37.8247 17.8285C37.5446 17.6628 37.3283 17.4324 37.1759 17.1374C37.0234 16.8408 36.9472 16.4969 36.9472 16.1058C36.9472 15.7114 37.0234 15.3667 37.1759 15.0717C37.3283 14.7751 37.5446 14.5447 37.8247 14.3807C38.1064 14.215 38.4403 14.1321 38.8264 14.1321C39.2126 14.1321 39.5457 14.215 39.8257 14.3807C40.1075 14.5447 40.3245 14.7751 40.477 15.0717C40.6295 15.3667 40.7057 15.7114 40.7057 16.1058C40.7057 16.4969 40.6295 16.8408 40.477 17.1374C40.3245 17.4324 40.1075 17.6628 39.8257 17.8285C39.5457 17.9925 39.2126 18.0746 38.8264 18.0746ZM38.8314 17.2543C39.0071 17.2543 39.1537 17.2045 39.2714 17.1051C39.3891 17.004 39.4777 16.8665 39.5374 16.6925C39.5987 16.5185 39.6294 16.3204 39.6294 16.0984C39.6294 15.8763 39.5987 15.6783 39.5374 15.5043C39.4777 15.3303 39.3891 15.1927 39.2714 15.0916C39.1537 14.9905 39.0071 14.94 38.8314 14.94C38.6541 14.94 38.5049 14.9905 38.384 15.0916C38.2646 15.1927 38.1743 15.3303 38.113 15.5043C38.0534 15.6783 38.0235 15.8763 38.0235 16.0984C38.0235 16.3204 38.0534 16.5185 38.113 16.6925C38.1743 16.8665 38.2646 17.004 38.384 17.1051C38.5049 17.2045 38.6541 17.2543 38.8314 17.2543ZM42.8012 18.0621C42.5112 18.0621 42.2485 17.9876 42.0132 17.8384C41.7796 17.6876 41.594 17.4664 41.4564 17.1747C41.3205 16.8814 41.2526 16.5218 41.2526 16.0959C41.2526 15.6584 41.323 15.2946 41.4639 15.0046C41.6047 14.7129 41.792 14.495 42.0257 14.3509C42.261 14.205 42.5187 14.1321 42.7987 14.1321C43.0125 14.1321 43.1907 14.1686 43.3332 14.2415C43.4774 14.3127 43.5934 14.4022 43.6812 14.5099C43.7707 14.616 43.8386 14.7204 43.885 14.8232H43.9173V12.9091H44.9738V18H43.9298V17.3885H43.885C43.8353 17.4946 43.7649 17.5998 43.6737 17.7042C43.5843 17.8069 43.4674 17.8923 43.3232 17.9602C43.1807 18.0282 43.0067 18.0621 42.8012 18.0621ZM43.1368 17.2195C43.3075 17.2195 43.4517 17.1731 43.5693 17.0803C43.6887 16.9858 43.7798 16.854 43.8428 16.685C43.9074 16.516 43.9397 16.3179 43.9397 16.0909C43.9397 15.8639 43.9082 15.6667 43.8453 15.4993C43.7823 15.3319 43.6911 15.2027 43.5718 15.1115C43.4525 15.0204 43.3075 14.9748 43.1368 14.9748C42.9628 14.9748 42.8161 15.022 42.6968 15.1165C42.5775 15.2109 42.4872 15.3419 42.4259 15.5092C42.3646 15.6766 42.3339 15.8705 42.3339 16.0909C42.3339 16.313 42.3646 16.5094 42.4259 16.68C42.4888 16.8491 42.5792 16.9817 42.6968 17.0778C42.8161 17.1722 42.9628 17.2195 43.1368 17.2195ZM46.9332 18.0721C46.6896 18.0721 46.4725 18.0298 46.282 17.9453C46.0914 17.8591 45.9406 17.7324 45.8295 17.565C45.7202 17.396 45.6655 17.1855 45.6655 16.9336C45.6655 16.7215 45.7044 16.5433 45.7823 16.3991C45.8602 16.255 45.9663 16.139 46.1005 16.0511C46.2347 15.9633 46.3872 15.897 46.5579 15.8523C46.7302 15.8075 46.9109 15.776 47.0998 15.7578C47.3219 15.7346 47.5008 15.7131 47.6367 15.6932C47.7726 15.6716 47.8712 15.6402 47.9325 15.5987C47.9938 15.5573 48.0245 15.496 48.0245 15.4148V15.3999C48.0245 15.2424 47.9748 15.1206 47.8754 15.0344C47.7776 14.9483 47.6384 14.9052 47.4577 14.9052C47.2672 14.9052 47.1155 14.9474 47.0028 15.032C46.8902 15.1148 46.8156 15.2192 46.7791 15.3452L45.7997 15.2656C45.8494 15.0336 45.9472 14.8331 46.093 14.6641C46.2389 14.4934 46.427 14.3625 46.6573 14.2713C46.8893 14.1785 47.1578 14.1321 47.4627 14.1321C47.6748 14.1321 47.8778 14.157 48.0717 14.2067C48.2673 14.2564 48.4405 14.3335 48.5913 14.4379C48.7437 14.5423 48.8639 14.6765 48.9517 14.8406C49.0395 15.003 49.0835 15.1977 49.0835 15.4247V18H48.0792V17.4705H48.0494C47.988 17.5898 47.906 17.6951 47.8033 17.7862C47.7005 17.8757 47.5771 17.9461 47.4329 17.9975C47.2887 18.0472 47.1222 18.0721 46.9332 18.0721ZM47.2365 17.3413C47.3923 17.3413 47.5298 17.3106 47.6491 17.2493C47.7685 17.1863 47.8621 17.1018 47.93 16.9957C47.998 16.8897 48.032 16.7695 48.032 16.6353V16.2301C47.9988 16.2517 47.9532 16.2715 47.8952 16.2898C47.8389 16.3063 47.7751 16.3221 47.7038 16.337C47.6326 16.3503 47.5613 16.3627 47.4901 16.3743C47.4188 16.3842 47.3542 16.3933 47.2962 16.4016C47.1719 16.4199 47.0633 16.4489 46.9705 16.4886C46.8777 16.5284 46.8056 16.5823 46.7543 16.6502C46.7029 16.7165 46.6772 16.7994 46.6772 16.8988C46.6772 17.043 46.7294 17.1532 46.8338 17.2294C46.9399 17.304 47.0741 17.3413 47.2365 17.3413ZM50.4221 19.4318C50.2878 19.4318 50.1619 19.421 50.0442 19.3995C49.9282 19.3796 49.8321 19.3539 49.7559 19.3224L49.9945 18.532C50.1188 18.5701 50.2306 18.5908 50.3301 18.5941C50.4312 18.5974 50.5182 18.5742 50.5911 18.5245C50.6657 18.4748 50.7261 18.3903 50.7725 18.271L50.8347 18.1094L49.465 14.1818H50.5787L51.3691 16.9858H51.4089L52.2069 14.1818H53.3279L51.8439 18.4126C51.7727 18.6181 51.6757 18.7971 51.5531 18.9496C51.4321 19.1037 51.2788 19.2222 51.0932 19.305C50.9076 19.3896 50.6839 19.4318 50.4221 19.4318ZM54.2496 18.0646C54.0855 18.0646 53.9446 18.0066 53.827 17.8906C53.711 17.773 53.653 17.6321 53.653 17.468C53.653 17.3056 53.711 17.1664 53.827 17.0504C53.9446 16.9344 54.0855 16.8764 54.2496 16.8764C54.4086 16.8764 54.5479 16.9344 54.6672 17.0504C54.7865 17.1664 54.8461 17.3056 54.8461 17.468C54.8461 17.5774 54.818 17.6777 54.7616 17.7688C54.7069 17.8583 54.6349 17.9304 54.5454 17.9851C54.4559 18.0381 54.3573 18.0646 54.2496 18.0646Z" fill="#FF7676"/>
</svg>
